<svg id="svg" version="1.1" xmlns="http://www.w3.org/2000/svg" xmlns:xlink="http://www.w3.org/1999/xlink" width="400" height="458.0645161290323" viewBox="0, 0, 400,458.0645161290323"><g id="svgg"><path id="path0" d="M177.600 100.933 C 177.600 101.687,177.336 101.953,176.400 102.140 C 175.447 102.331,175.200 102.588,175.200 103.390 C 175.200 104.201,175.003 104.400,174.200 104.400 C 173.400 104.400,173.200 104.600,173.200 105.400 C 173.200 106.186,172.997 106.400,172.250 106.400 C 171.514 106.400,171.246 106.671,171.060 107.600 C 170.869 108.553,170.612 108.800,169.810 108.800 C 168.999 108.800,168.800 108.997,168.800 109.800 C 168.800 110.600,168.600 110.800,167.800 110.800 C 167.007 110.800,166.800 111.002,166.800 111.773 C 166.800 112.538,166.564 112.774,165.700 112.873 C 164.836 112.973,164.573 113.236,164.473 114.100 C 164.374 114.964,164.138 115.200,163.373 115.200 C 162.602 115.200,162.400 115.407,162.400 116.200 C 162.400 117.000,162.200 117.200,161.400 117.200 C 160.607 117.200,160.400 117.402,160.400 118.173 C 160.400 118.938,160.164 119.174,159.300 119.273 C 158.436 119.373,158.173 119.636,158.073 120.500 C 157.974 121.364,157.738 121.600,156.973 121.600 C 156.202 121.600,156.000 121.807,156.000 122.600 C 156.000 123.403,155.801 123.600,154.990 123.600 C 154.188 123.600,153.931 123.847,153.740 124.800 C 153.554 125.729,153.286 126.000,152.550 126.000 C 151.803 126.000,151.600 126.214,151.600 127.000 C 151.600 127.800,151.400 128.000,150.600 128.000 C 149.807 128.000,149.600 128.202,149.600 128.973 C 149.600 129.738,149.364 129.974,148.500 130.073 L 147.400 130.200 147.400 207.400 L 147.400 284.600 149.500 284.721 C 151.401 284.830,151.600 284.931,151.600 285.778 C 151.600 286.960,152.242 287.200,155.405 287.200 C 157.734 287.200,157.955 287.275,158.072 288.100 C 158.190 288.932,158.432 289.009,161.274 289.116 C 164.099 289.223,164.359 289.304,164.474 290.116 C 164.590 290.928,164.850 291.010,167.653 291.116 C 170.682 291.231,170.708 291.241,170.943 292.416 C 171.167 293.533,171.290 293.600,173.126 293.600 C 174.821 293.600,175.131 293.731,175.534 294.615 C 175.988 295.612,176.061 295.627,179.898 295.515 L 183.800 295.400 183.800 197.800 L 183.800 100.200 180.700 100.083 C 177.656 99.968,177.600 99.984,177.600 100.933 M126.350 149.845 C 126.235 150.201,126.097 150.826,126.050 151.200 C 126.022 151.420,125.655 151.600,125.234 151.600 C 124.769 151.600,124.261 152.066,123.943 152.784 C 123.654 153.436,123.055 154.020,122.609 154.084 C 122.121 154.154,121.749 154.557,121.672 155.100 C 121.582 155.738,121.274 156.000,120.616 156.000 C 119.965 156.000,119.613 156.292,119.443 156.972 C 119.290 157.579,118.860 157.993,118.299 158.072 C 117.656 158.164,117.364 158.513,117.273 159.300 C 117.174 160.164,116.938 160.400,116.173 160.400 C 115.409 160.400,115.200 160.609,115.200 161.373 C 115.200 162.138,114.964 162.374,114.100 162.473 C 113.323 162.563,112.963 162.857,112.875 163.475 C 112.798 164.021,112.421 164.398,111.875 164.475 C 111.257 164.563,110.963 164.923,110.873 165.700 C 110.774 166.564,110.538 166.800,109.773 166.800 C 109.002 166.800,108.800 167.007,108.800 167.800 C 108.800 168.644,108.613 168.800,107.600 168.800 C 106.596 168.800,106.400 168.959,106.400 169.772 C 106.400 170.476,106.151 170.780,105.500 170.872 C 104.861 170.963,104.564 171.313,104.476 172.076 C 104.380 172.907,104.107 173.180,103.276 173.276 L 102.200 173.400 102.200 221.315 C 102.200 263.470,102.272 269.275,102.800 269.608 C 103.130 269.817,104.615 269.991,106.100 269.994 C 108.712 270.000,108.800 270.033,108.800 271.000 C 108.800 271.983,108.853 272.000,112.000 272.000 C 115.147 272.000,115.200 272.017,115.200 273.000 C 115.200 273.983,115.253 274.000,118.400 274.000 L 121.600 274.000 121.600 275.200 C 121.600 276.388,121.622 276.400,123.800 276.400 C 125.010 276.400,126.022 276.580,126.050 276.800 C 126.078 277.020,126.123 277.425,126.150 277.700 C 126.257 278.765,131.934 278.606,132.194 277.531 C 132.318 277.019,132.370 248.070,132.309 213.200 L 132.200 149.800 129.300 149.745 C 127.705 149.715,126.378 149.760,126.350 149.845 M82.969 191.383 C 82.784 192.118,82.448 192.400,81.757 192.400 C 80.965 192.400,80.800 192.603,80.800 193.573 C 80.800 194.556,80.621 194.767,79.700 194.873 C 78.912 194.964,78.564 195.256,78.472 195.900 C 78.380 196.551,78.076 196.800,77.372 196.800 C 76.609 196.800,76.400 197.009,76.400 197.772 C 76.400 198.476,76.151 198.780,75.500 198.872 C 74.856 198.964,74.564 199.312,74.473 200.100 C 74.367 201.021,74.156 201.200,73.173 201.200 C 72.188 201.200,72.000 201.361,72.000 202.200 C 72.000 203.000,71.800 203.200,71.000 203.200 C 70.214 203.200,70.000 203.403,70.000 204.150 C 70.000 204.886,69.729 205.154,68.800 205.340 L 67.600 205.580 67.600 231.190 L 67.600 256.800 68.800 256.800 C 69.796 256.800,70.000 256.961,70.000 257.750 C 70.000 258.830,71.127 259.200,74.422 259.200 C 76.111 259.200,76.360 259.309,76.472 260.100 C 76.590 260.933,76.831 261.009,79.700 261.117 C 82.651 261.228,82.800 261.279,82.800 262.170 C 82.800 263.230,83.655 263.586,86.224 263.595 C 89.484 263.606,89.220 267.007,89.103 226.600 L 89.000 190.600 86.112 190.483 C 83.310 190.369,83.216 190.396,82.969 191.383 M54.800 219.400 C 54.800 220.200,54.600 220.400,53.800 220.400 C 53.014 220.400,52.800 220.603,52.800 221.350 C 52.800 222.086,52.529 222.354,51.600 222.540 C 50.647 222.731,50.400 222.988,50.400 223.790 C 50.400 224.601,50.203 224.800,49.400 224.800 C 48.600 224.800,48.400 225.000,48.400 225.800 C 48.400 226.600,48.200 226.800,47.400 226.800 C 46.556 226.800,46.400 226.987,46.400 228.000 C 46.400 229.067,46.267 229.200,45.200 229.200 C 44.187 229.200,44.000 229.356,44.000 230.200 C 44.000 231.000,43.800 231.200,43.000 231.200 C 42.200 231.200,42.000 231.400,42.000 232.200 C 42.000 232.986,41.797 233.200,41.050 233.200 C 40.314 233.200,40.046 233.471,39.860 234.400 C 39.669 235.353,39.412 235.600,38.610 235.600 C 37.799 235.600,37.600 235.797,37.600 236.600 C 37.600 237.400,37.400 237.600,36.600 237.600 C 35.807 237.600,35.600 237.802,35.600 238.573 C 35.600 239.338,35.364 239.574,34.500 239.673 C 33.406 239.799,33.400 239.816,33.456 242.723 C 33.524 246.266,33.270 246.006,36.941 246.284 C 39.620 246.487,39.973 246.607,40.080 247.356 C 40.189 248.120,40.495 248.211,43.300 248.317 C 46.294 248.430,46.400 248.467,46.400 249.417 C 46.400 250.379,46.468 250.400,49.600 250.400 C 52.740 250.400,52.800 250.419,52.800 251.392 C 52.800 252.595,53.720 252.900,56.821 252.724 L 59.000 252.600 59.104 235.500 L 59.209 218.400 57.004 218.400 C 54.920 218.400,54.800 218.454,54.800 219.400 M47.200 255.102 C 47.200 255.322,47.470 255.726,47.800 256.000 C 48.135 256.278,48.400 256.321,48.400 256.098 C 48.400 255.878,48.130 255.474,47.800 255.200 C 47.465 254.922,47.200 254.879,47.200 255.102 M64.562 261.942 C 65.409 262.895,65.600 262.982,65.600 262.414 C 65.600 262.202,65.195 261.816,64.700 261.556 C 63.805 261.086,63.804 261.088,64.562 261.942 " stroke="none" fill="#ec1c24" fill-rule="evenodd"></path><path id="path1" d="M0.000 243.986 C 0.000 247.547,0.111 248.400,0.572 248.400 C 0.887 248.400,1.202 248.805,1.272 249.300 C 1.363 249.939,1.713 250.236,2.478 250.324 C 3.149 250.402,3.483 250.639,3.363 250.953 C 3.256 251.231,3.635 251.670,4.203 251.929 C 5.525 252.531,5.469 252.544,5.724 251.570 C 5.843 251.114,6.297 250.647,6.733 250.533 C 8.512 250.068,8.556 244.810,6.800 242.600 C 6.140 241.769,5.600 240.780,5.600 240.401 C 5.600 239.822,5.155 239.701,2.800 239.642 L 0.000 239.571 0.000 243.986 M397.300 239.895 C 397.025 239.990,396.800 240.502,396.800 241.033 C 396.800 241.964,396.695 242.000,393.991 242.000 C 391.384 242.000,391.150 242.072,390.727 243.000 C 390.283 243.976,388.777 244.309,385.900 244.068 C 385.515 244.036,385.200 244.187,385.200 244.405 C 385.200 244.622,384.930 244.800,384.600 244.800 C 384.270 244.800,384.021 244.935,384.047 245.100 C 384.221 246.200,383.876 246.400,381.800 246.400 C 379.720 246.400,379.600 246.455,379.600 247.400 C 379.600 248.390,378.349 248.678,374.837 248.497 C 374.232 248.466,373.159 249.371,373.191 249.886 C 373.202 250.059,372.302 250.255,371.191 250.321 C 369.312 250.434,369.155 250.525,368.936 251.621 C 368.703 252.783,368.662 252.800,366.050 252.806 C 363.240 252.813,362.600 253.034,362.600 254.000 C 362.600 254.427,362.022 254.658,360.600 254.800 C 359.016 254.958,358.518 255.187,358.205 255.900 C 357.885 256.630,357.469 256.809,356.005 256.846 C 355.012 256.872,354.020 256.934,353.800 256.985 C 353.580 257.036,353.033 257.106,352.585 257.139 C 352.065 257.178,351.747 257.506,351.707 258.045 C 351.621 259.180,351.735 259.134,348.726 259.267 C 347.264 259.333,346.153 259.524,346.257 259.693 C 346.362 259.862,346.147 260.000,345.781 260.000 C 345.353 260.000,345.197 260.215,345.345 260.600 C 345.529 261.082,345.199 261.200,343.667 261.200 C 341.649 261.200,340.800 261.698,340.800 262.880 C 340.800 263.502,340.431 263.601,338.100 263.606 C 335.241 263.613,334.600 263.831,334.600 264.800 C 334.600 265.198,334.130 265.436,333.200 265.508 C 330.676 265.703,330.000 265.977,330.000 266.808 C 330.000 267.523,329.724 267.600,327.165 267.600 C 324.383 267.600,324.322 267.622,323.878 268.800 C 323.411 270.037,323.081 270.120,318.709 270.108 C 318.329 270.107,318.115 270.262,318.233 270.453 C 318.351 270.644,318.167 270.800,317.824 270.800 C 317.481 270.800,317.200 271.061,317.200 271.379 C 317.200 271.796,316.611 271.992,315.100 272.079 C 313.271 272.184,312.984 272.316,312.872 273.100 C 312.763 273.869,312.501 274.000,311.072 274.002 C 309.200 274.005,306.389 274.683,306.453 275.117 C 306.610 276.181,306.267 276.400,304.443 276.400 C 302.524 276.400,301.622 277.064,302.222 278.036 C 302.406 278.334,299.177 278.612,296.852 278.499 C 296.550 278.485,296.105 278.996,295.864 279.636 C 295.450 280.732,295.292 280.800,293.171 280.800 C 291.332 280.800,290.722 280.981,289.858 281.782 C 289.116 282.468,288.266 282.791,287.024 282.855 C 285.571 282.930,285.210 283.106,285.029 283.825 C 284.840 284.580,284.473 284.727,282.416 284.876 C 280.432 285.020,279.864 285.233,279.098 286.125 C 278.338 287.009,277.840 287.200,276.287 287.200 C 274.541 287.200,274.400 287.275,274.400 288.200 C 274.400 289.129,271.377 289.682,268.691 289.244 C 268.521 289.217,268.218 289.627,268.016 290.157 C 267.715 290.950,267.312 291.149,265.725 291.286 C 263.141 291.509,262.734 291.654,261.800 292.676 C 261.253 293.275,260.431 293.591,259.200 293.676 C 257.683 293.780,257.380 293.942,257.272 294.700 C 257.155 295.526,256.934 295.600,254.596 295.600 C 253.194 295.600,251.934 295.783,251.796 296.007 C 251.658 296.230,251.401 296.324,251.225 296.216 C 251.049 296.107,250.927 296.419,250.953 296.909 C 250.996 297.720,250.792 297.811,248.700 297.920 C 246.558 298.032,246.400 298.107,246.400 299.020 C 246.400 299.954,246.279 300.002,243.800 300.050 C 240.155 300.120,240.214 300.104,240.075 301.080 C 239.967 301.839,239.663 301.976,237.875 302.080 C 235.943 302.192,235.791 302.276,235.673 303.300 C 235.547 304.397,235.538 304.400,232.373 304.400 C 229.255 304.400,229.200 304.417,229.200 305.400 C 229.200 306.371,229.120 306.400,226.400 306.400 C 224.696 306.400,223.600 306.566,223.600 306.824 C 223.600 307.057,223.416 307.133,223.190 306.994 C 222.965 306.855,222.806 306.889,222.837 307.070 C 223.011 308.072,222.682 308.400,221.500 308.405 C 219.243 308.415,218.400 308.807,218.400 309.847 C 218.400 310.727,214.894 311.293,212.270 310.837 C 212.089 310.806,212.044 310.948,212.172 311.154 C 212.802 312.174,211.883 312.800,209.757 312.800 C 207.627 312.800,207.600 312.815,207.600 314.000 C 207.600 315.199,207.597 315.200,205.223 315.200 C 203.011 315.200,202.857 315.141,203.010 314.346 C 203.101 313.876,203.060 313.607,202.920 313.747 C 202.780 313.887,202.316 313.686,201.890 313.301 C 201.465 312.915,201.045 312.645,200.958 312.700 C 200.011 313.299,196.841 312.700,196.728 311.900 C 196.610 311.067,196.369 310.991,193.500 310.883 C 190.506 310.770,190.400 310.733,190.400 309.783 C 190.400 309.242,190.175 308.780,189.900 308.755 C 186.256 308.429,185.438 308.185,185.836 307.541 C 186.016 307.251,185.949 307.184,185.659 307.364 C 185.398 307.525,185.088 307.373,184.952 307.018 C 184.818 306.670,184.504 306.410,184.254 306.440 C 181.659 306.751,179.649 306.352,179.528 305.500 C 179.410 304.668,179.168 304.591,176.325 304.484 C 173.313 304.370,173.247 304.345,173.125 303.284 C 173.009 302.281,172.836 302.185,170.800 302.000 C 169.590 301.890,168.690 301.697,168.800 301.571 C 169.101 301.228,167.808 300.064,167.163 300.097 C 164.273 300.246,162.354 299.943,162.117 299.300 C 161.714 298.209,161.179 298.013,158.588 298.006 C 156.277 298.000,156.156 297.950,155.722 296.800 C 155.308 295.702,155.110 295.600,153.397 295.600 C 151.892 295.600,151.486 295.451,151.326 294.837 C 151.085 293.917,150.089 293.613,147.300 293.605 C 146.145 293.602,145.178 293.420,145.150 293.200 C 145.123 292.980,145.078 292.577,145.050 292.304 C 144.991 291.722,143.337 291.314,140.764 291.247 C 139.217 291.207,138.857 291.043,138.473 290.200 C 138.093 289.367,137.740 289.200,136.354 289.200 C 135.095 289.200,134.467 288.958,133.765 288.200 C 132.973 287.346,132.486 287.200,130.419 287.200 C 129.089 287.200,127.978 287.020,127.950 286.800 C 127.922 286.580,127.878 286.213,127.850 285.985 C 127.754 285.188,126.580 284.812,124.164 284.806 C 121.957 284.801,121.686 284.706,121.273 283.800 C 120.885 282.950,120.549 282.800,119.023 282.800 C 117.345 282.800,115.940 281.793,116.641 281.093 C 116.758 280.976,116.616 280.890,116.327 280.903 C 112.788 281.058,110.800 280.756,110.800 280.064 C 110.800 279.093,109.495 278.562,106.800 278.435 C 104.324 278.318,104.379 278.342,104.234 277.337 C 104.149 276.749,103.710 276.576,102.066 276.479 C 100.317 276.377,99.971 276.223,99.781 275.465 C 99.657 274.973,99.251 274.549,98.878 274.521 C 98.505 274.493,97.660 274.376,97.000 274.262 C 96.340 274.148,95.325 274.043,94.743 274.028 C 93.989 274.008,93.621 273.739,93.458 273.088 C 93.250 272.259,92.967 272.166,90.317 272.058 C 87.081 271.925,87.181 271.960,87.034 270.937 C 86.949 270.349,86.510 270.176,84.866 270.079 C 83.103 269.976,82.772 269.826,82.576 269.046 C 82.320 268.027,82.356 268.040,78.935 267.745 C 76.795 267.561,76.440 267.413,76.243 266.627 C 76.035 265.801,75.760 265.714,73.117 265.637 C 69.907 265.543,69.983 265.569,69.834 264.537 C 69.751 263.960,69.313 263.773,67.818 263.676 C 66.298 263.578,65.714 263.322,64.956 262.420 C 64.432 261.798,63.778 261.297,63.502 261.307 C 60.398 261.424,59.312 261.164,58.873 260.200 C 58.450 259.272,58.216 259.200,55.609 259.200 C 54.003 259.200,52.800 259.029,52.800 258.800 C 52.800 257.311,52.131 256.800,50.180 256.800 C 48.815 256.800,48.293 256.591,47.663 255.789 C 47.225 255.233,46.717 254.804,46.534 254.836 C 44.387 255.213,42.094 254.724,41.673 253.800 C 41.250 252.872,41.016 252.800,38.409 252.800 C 36.836 252.800,35.578 252.624,35.550 252.400 C 35.523 252.180,35.455 251.820,35.400 251.600 C 35.345 251.380,35.278 251.054,35.250 250.875 C 35.223 250.696,34.351 250.506,33.313 250.452 C 31.392 250.352,30.400 249.871,30.400 249.038 C 30.400 248.768,29.666 248.542,28.645 248.498 C 26.895 248.421,26.886 248.428,26.017 250.448 C 24.265 254.522,25.701 263.583,28.100 263.595 C 29.005 263.599,29.200 263.777,29.200 264.600 C 29.200 265.533,29.333 265.600,31.200 265.600 C 32.300 265.600,33.223 265.780,33.250 266.000 C 33.277 266.220,33.323 266.625,33.350 266.900 C 33.377 267.175,33.895 267.457,34.500 267.527 C 35.525 267.645,35.811 268.023,35.614 269.000 C 35.570 269.220,35.667 269.267,35.830 269.103 C 35.993 268.940,36.337 268.982,36.595 269.195 C 36.852 269.409,37.769 269.734,38.631 269.918 C 39.827 270.173,40.170 270.423,40.073 270.967 C 40.003 271.363,40.124 271.571,40.346 271.434 C 40.565 271.298,40.858 271.370,40.996 271.593 C 41.134 271.817,41.967 272.000,42.847 272.000 C 43.820 272.000,44.350 272.158,44.198 272.403 C 43.740 273.145,45.118 274.000,46.771 274.000 C 48.356 274.000,48.601 274.229,48.421 275.540 C 48.380 275.837,48.539 275.962,48.773 275.817 C 49.008 275.671,49.200 275.720,49.200 275.924 C 49.200 276.129,49.515 276.295,49.900 276.293 C 52.516 276.283,52.800 276.391,52.800 277.400 C 52.800 278.344,52.922 278.400,54.973 278.400 C 57.047 278.400,57.153 278.450,57.273 279.500 C 57.389 280.505,57.562 280.610,59.275 280.721 C 60.856 280.823,61.169 280.979,61.275 281.721 C 61.383 282.478,61.687 282.617,63.475 282.720 C 65.263 282.824,65.567 282.961,65.675 283.720 C 65.783 284.480,66.086 284.616,67.900 284.721 C 69.811 284.831,70.000 284.927,70.000 285.794 C 70.000 286.411,70.297 286.840,70.844 287.014 C 71.308 287.161,72.133 287.668,72.676 288.141 C 73.732 289.059,73.774 289.074,75.587 289.150 C 76.521 289.189,76.720 289.342,76.519 289.866 C 76.333 290.352,76.408 290.442,76.800 290.200 C 77.191 289.958,77.267 290.048,77.082 290.530 C 76.943 290.893,76.957 291.171,77.114 291.148 C 79.042 290.861,80.800 291.272,80.800 292.010 C 80.800 292.921,82.177 293.600,84.026 293.600 C 85.012 293.600,85.200 293.760,85.200 294.600 C 85.200 295.150,85.335 295.579,85.500 295.553 C 87.268 295.273,89.200 295.674,89.200 296.320 C 89.200 297.460,90.031 298.000,91.785 298.000 C 93.087 298.000,93.489 298.179,93.805 298.900 C 94.121 299.621,94.578 299.824,96.100 299.922 C 97.815 300.032,98.000 300.139,98.000 301.022 C 98.000 301.929,98.145 302.000,100.000 302.000 C 101.729 302.000,102.000 302.108,102.000 302.795 C 102.000 303.325,102.466 303.784,103.400 304.174 C 104.170 304.496,104.800 305.017,104.800 305.333 C 104.800 305.958,105.970 306.386,107.700 306.395 C 108.305 306.398,108.822 306.580,108.850 306.800 C 108.878 307.020,108.922 307.425,108.950 307.699 C 108.978 307.974,109.270 308.217,109.600 308.239 C 109.930 308.260,110.785 308.306,111.500 308.339 C 112.237 308.374,112.803 308.617,112.806 308.900 C 112.818 309.886,113.459 310.382,115.017 310.608 C 117.295 310.940,117.710 311.137,117.467 311.770 C 117.197 312.474,118.010 312.800,120.033 312.800 C 121.324 312.800,121.600 312.938,121.600 313.586 C 121.600 314.580,122.742 315.200,124.574 315.200 C 125.706 315.200,126.000 315.356,126.000 315.957 C 126.000 316.843,126.747 317.200,128.605 317.200 C 129.689 317.200,129.969 317.371,130.072 318.100 C 130.183 318.882,130.471 319.016,132.275 319.120 C 134.197 319.231,134.360 319.320,134.475 320.320 C 134.591 321.320,134.753 321.409,136.675 321.520 C 138.460 321.623,138.767 321.762,138.875 322.516 C 138.944 323.002,139.344 323.457,139.772 323.539 C 140.593 323.696,141.882 324.773,141.329 324.840 C 140.631 324.925,143.066 325.522,144.263 325.560 C 145.304 325.593,145.490 325.735,145.324 326.370 C 145.122 327.140,146.995 327.992,148.900 327.998 C 149.285 327.999,149.600 328.264,149.600 328.586 C 149.600 329.395,150.873 330.000,152.574 330.000 C 153.810 330.000,154.000 330.127,154.000 330.953 C 154.000 331.965,154.842 332.384,156.892 332.395 C 157.722 332.399,158.045 332.641,158.236 333.400 C 158.461 334.296,158.690 334.400,160.443 334.400 C 162.264 334.400,162.400 334.470,162.400 335.400 C 162.400 336.344,162.522 336.400,164.573 336.400 C 166.647 336.400,166.753 336.450,166.873 337.500 C 166.988 338.499,167.167 338.611,168.813 338.718 C 170.223 338.810,170.712 339.030,171.013 339.705 C 171.226 340.183,171.850 340.678,172.400 340.806 C 173.045 340.956,173.401 341.315,173.402 341.819 C 173.403 342.634,173.540 342.679,176.277 342.754 C 177.698 342.793,177.932 342.916,177.807 343.561 C 177.710 344.066,177.954 344.419,178.530 344.607 C 179.009 344.764,179.535 344.939,179.700 344.996 C 179.865 345.053,180.357 345.123,180.792 345.150 C 181.264 345.180,181.679 345.576,181.817 346.127 C 182.014 346.910,182.338 347.068,183.916 347.150 C 185.657 347.240,186.585 347.777,186.168 348.452 C 186.069 348.612,186.396 348.882,186.894 349.052 C 188.090 349.460,188.243 349.491,189.305 349.550 C 189.829 349.579,190.377 349.979,190.605 350.500 C 190.920 351.218,191.378 351.424,192.875 351.521 C 194.456 351.623,194.769 351.779,194.875 352.521 C 194.981 353.264,195.293 353.419,196.900 353.522 C 198.461 353.622,198.800 353.780,198.800 354.408 C 198.800 356.435,207.292 356.739,207.525 354.720 C 207.640 353.720,207.803 353.631,209.725 353.520 C 211.529 353.416,211.817 353.282,211.928 352.500 C 212.038 351.722,212.295 351.600,213.820 351.600 C 215.369 351.600,215.615 351.478,215.836 350.600 C 216.030 349.827,216.344 349.600,217.225 349.600 C 218.496 349.600,220.463 348.825,220.214 348.422 C 219.826 347.795,220.778 347.185,222.285 347.096 C 223.183 347.043,223.851 346.889,223.769 346.753 C 223.455 346.237,225.072 345.262,226.800 344.925 C 227.790 344.732,228.623 344.355,228.650 344.087 C 228.678 343.819,228.722 343.432,228.750 343.227 C 228.778 343.021,229.295 342.796,229.900 342.727 C 230.688 342.636,231.036 342.344,231.128 341.700 C 231.239 340.920,231.494 340.800,233.038 340.800 C 234.560 340.800,234.874 340.657,235.191 339.823 C 235.503 339.003,235.871 338.826,237.481 338.723 C 239.232 338.611,239.411 338.505,239.525 337.521 C 239.638 336.541,239.821 336.431,241.525 336.321 C 243.022 336.224,243.480 336.018,243.795 335.300 C 244.052 334.713,244.539 334.398,245.195 334.395 C 246.872 334.385,247.916 333.964,248.112 333.216 C 248.220 332.803,248.822 332.407,249.551 332.270 C 251.938 331.820,252.200 331.722,252.250 331.262 C 252.278 331.008,252.322 330.620,252.350 330.400 C 252.378 330.180,252.940 330.000,253.600 330.000 C 254.613 330.000,254.800 329.844,254.800 329.000 C 254.800 328.059,256.393 327.610,258.509 327.956 C 258.680 327.984,258.925 327.474,259.056 326.822 C 259.277 325.716,259.427 325.631,261.346 325.519 C 263.112 325.417,263.418 325.277,263.525 324.522 C 263.627 323.801,263.951 323.622,265.325 323.522 C 266.612 323.428,267.091 323.192,267.395 322.500 C 267.665 321.885,268.133 321.600,268.876 321.600 C 270.106 321.600,272.058 320.817,271.814 320.422 C 271.436 319.811,272.329 319.247,273.912 319.100 C 274.848 319.013,275.604 318.813,275.592 318.656 C 275.545 318.013,276.806 317.212,278.011 317.120 C 278.836 317.058,279.512 316.695,279.895 316.111 C 280.243 315.580,280.894 315.200,281.456 315.200 C 282.204 315.200,282.473 314.935,282.656 314.019 C 282.876 312.920,283.032 312.830,284.910 312.719 C 286.512 312.625,286.949 312.448,287.034 311.863 C 287.176 310.878,287.145 310.894,289.200 310.726 C 290.809 310.594,291.013 310.465,291.125 309.510 C 291.237 308.543,291.426 308.430,293.125 308.321 C 294.622 308.224,295.080 308.018,295.395 307.300 C 295.652 306.713,296.139 306.398,296.795 306.395 C 298.472 306.385,299.516 305.964,299.712 305.216 C 299.820 304.803,300.422 304.407,301.151 304.270 C 301.841 304.140,302.719 303.964,303.102 303.880 C 303.486 303.796,303.858 303.339,303.928 302.864 C 304.025 302.204,304.333 302.000,305.228 302.000 C 306.211 302.000,306.400 301.839,306.400 301.000 C 306.400 300.055,306.520 300.000,308.600 300.000 C 310.680 300.000,310.800 299.945,310.800 299.000 C 310.800 298.088,310.952 298.000,312.520 298.000 C 314.363 298.000,315.200 297.475,315.200 296.320 C 315.200 295.723,315.541 295.600,317.200 295.600 C 319.067 295.600,319.200 295.533,319.200 294.600 C 319.200 293.813,319.413 293.589,320.200 293.550 C 320.750 293.522,321.380 293.455,321.600 293.400 C 321.820 293.345,322.267 293.278,322.592 293.250 C 322.918 293.223,323.298 292.750,323.436 292.200 C 323.678 291.235,324.395 290.995,326.727 291.097 C 327.017 291.110,327.450 290.688,327.691 290.160 C 328.076 289.315,329.089 288.946,330.477 289.145 C 330.629 289.167,331.092 288.755,331.505 288.230 C 331.919 287.704,332.694 287.213,333.228 287.137 C 333.948 287.036,334.233 286.715,334.327 285.900 C 334.445 284.866,334.572 284.800,336.419 284.800 C 338.182 284.800,338.411 284.697,338.636 283.800 C 338.856 282.922,339.103 282.800,340.652 282.800 C 342.147 282.800,342.487 282.647,342.873 281.800 C 343.210 281.060,343.649 280.793,344.564 280.772 C 345.970 280.740,347.273 280.306,347.230 279.884 C 347.094 278.580,347.272 278.400,348.700 278.394 C 350.355 278.387,350.984 278.098,351.269 277.212 C 351.373 276.889,352.255 276.432,353.229 276.198 C 354.418 275.912,355.130 275.481,355.395 274.886 C 355.749 274.092,357.249 273.692,358.900 273.953 C 359.065 273.979,359.200 273.809,359.200 273.576 C 359.200 273.343,359.384 273.267,359.610 273.406 C 359.835 273.545,359.994 273.511,359.963 273.330 C 359.792 272.348,360.116 272.000,361.200 272.000 C 362.213 272.000,362.400 271.844,362.400 271.000 C 362.400 270.086,362.550 270.000,364.151 270.000 C 365.930 270.000,366.927 269.355,366.714 268.342 C 366.634 267.962,367.199 267.740,368.600 267.600 C 370.296 267.430,370.619 267.263,370.728 266.500 C 370.818 265.864,371.126 265.600,371.778 265.600 C 373.848 265.600,375.200 265.106,375.200 264.350 C 375.200 263.789,375.492 263.600,376.358 263.600 C 377.094 263.600,377.987 263.159,378.812 262.389 C 379.710 261.550,380.570 261.151,381.616 261.089 C 382.445 261.040,383.066 260.908,382.997 260.796 C 382.724 260.353,383.858 259.318,384.900 259.059 C 385.731 258.852,386.000 258.542,386.000 257.792 C 386.000 256.869,386.138 256.800,387.992 256.800 C 389.784 256.800,390.010 256.699,390.236 255.800 C 390.456 254.922,390.703 254.800,392.252 254.800 C 393.747 254.800,394.087 254.647,394.473 253.800 C 394.837 253.000,395.220 252.800,396.384 252.800 C 397.981 252.800,398.800 252.230,398.800 251.120 C 398.800 250.724,399.070 250.400,399.400 250.400 C 399.904 250.400,400.000 249.536,400.000 245.027 L 400.000 239.654 398.900 239.689 C 398.295 239.708,397.575 239.801,397.300 239.895 " stroke="none" fill="#e4ac24" fill-rule="evenodd"></path><path id="path2" d="M229.976 111.743 C 229.193 112.214,227.933 113.004,227.176 113.499 C 226.419 113.993,225.510 114.398,225.156 114.399 C 223.897 114.401,215.600 123.183,215.600 124.512 C 215.600 124.707,215.015 126.156,214.300 127.733 L 213.000 130.600 212.787 180.400 C 212.593 225.761,212.514 230.343,211.905 231.800 C 211.536 232.680,211.227 233.719,211.218 234.109 C 211.193 235.098,208.115 238.338,206.440 239.137 C 204.708 239.963,204.394 240.977,204.284 246.100 L 204.200 250.000 202.530 251.500 C 200.616 253.219,200.136 253.410,199.355 252.763 C 198.874 252.364,198.809 255.850,198.897 277.048 L 199.000 301.800 200.300 301.925 L 201.600 302.051 201.595 299.925 C 201.587 296.827,201.281 296.000,200.145 296.000 L 199.184 296.000 199.292 287.500 C 199.399 279.108,199.411 279.001,200.245 279.116 C 201.286 279.259,201.576 277.890,201.624 272.600 C 201.677 266.709,204.304 264.217,210.200 264.465 C 217.997 264.793,219.200 267.288,219.200 283.131 C 219.200 296.427,218.948 295.684,223.408 295.518 C 226.372 295.408,226.609 295.336,226.728 294.500 C 226.798 294.005,227.068 293.600,227.328 293.600 C 227.680 293.600,227.800 290.618,227.800 281.866 L 227.800 270.133 228.962 268.455 C 232.390 263.507,238.411 263.271,240.597 268.000 C 241.642 270.261,242.000 273.326,242.000 280.020 L 242.000 287.200 245.567 287.200 C 250.283 287.200,251.731 286.291,249.912 284.472 C 248.818 283.378,249.263 272.102,250.501 269.570 C 253.003 264.454,258.951 262.705,263.835 265.650 C 266.760 267.413,267.237 268.420,267.486 273.359 C 267.730 278.172,267.910 278.400,271.476 278.400 C 274.123 278.400,275.010 277.336,273.444 276.037 C 273.021 275.685,272.850 273.891,272.724 268.488 C 272.577 262.189,272.461 261.202,271.679 259.625 C 271.196 258.649,270.800 257.650,270.800 257.406 C 270.800 256.900,267.937 254.000,267.437 254.000 C 265.722 254.000,264.508 251.125,264.308 246.588 C 264.085 241.524,263.961 241.266,259.716 237.000 C 258.582 235.860,257.876 234.628,257.262 232.716 L 256.400 230.033 256.405 184.316 C 256.411 135.823,256.382 136.800,257.823 136.800 C 258.334 136.800,258.862 136.624,258.995 136.408 C 259.385 135.777,258.439 134.400,257.614 134.400 C 257.132 134.400,256.809 134.072,256.728 133.500 C 256.646 132.922,256.278 132.554,255.700 132.472 C 255.126 132.391,254.800 132.068,254.800 131.582 C 254.800 131.148,254.306 130.565,253.651 130.226 C 253.019 129.899,252.406 129.265,252.288 128.816 C 252.162 128.334,251.744 128.000,251.265 128.000 C 250.730 128.000,250.412 127.695,250.328 127.100 C 250.246 126.522,249.878 126.154,249.300 126.072 C 248.763 125.996,248.400 125.665,248.400 125.252 C 248.400 124.366,247.634 123.600,246.748 123.600 C 246.335 123.600,246.004 123.237,245.928 122.700 C 245.819 121.934,245.521 121.782,243.925 121.679 C 242.221 121.569,242.038 121.459,241.925 120.479 C 241.827 119.637,241.558 119.372,240.700 119.273 C 239.836 119.174,239.600 118.938,239.600 118.173 C 239.600 117.402,239.393 117.200,238.600 117.200 C 237.800 117.200,237.600 117.000,237.600 116.200 C 237.600 115.407,237.398 115.200,236.627 115.200 C 235.862 115.200,235.626 114.964,235.527 114.100 C 235.427 113.236,235.164 112.973,234.300 112.873 C 233.436 112.774,233.200 112.538,233.200 111.773 C 233.200 110.536,231.998 110.525,229.976 111.743 M243.365 133.200 C 244.534 133.200,245.024 133.800,245.354 135.639 C 245.533 136.632,245.917 137.216,246.596 137.525 C 247.571 137.970,247.768 138.445,248.144 141.270 C 248.252 142.078,248.697 143.097,249.134 143.534 C 249.784 144.184,249.920 144.832,249.884 147.113 C 249.854 149.071,250.035 150.194,250.492 150.892 C 251.094 151.810,251.094 151.935,250.490 152.539 C 249.720 153.308,249.763 155.582,250.577 157.155 C 251.057 158.083,251.035 158.317,250.394 159.108 C 249.789 159.855,249.734 160.253,250.069 161.466 C 250.291 162.268,250.366 163.662,250.237 164.562 C 250.108 165.463,250.031 166.560,250.066 167.000 C 250.126 167.756,250.109 171.459,250.035 173.560 C 250.016 174.087,250.271 175.060,250.600 175.721 C 251.672 177.870,251.484 230.516,250.400 231.600 C 249.230 232.770,239.396 232.811,237.964 231.652 C 236.622 230.564,236.472 225.199,236.433 176.760 L 236.400 135.719 237.427 133.760 C 238.971 130.813,239.448 130.584,241.074 132.012 C 241.819 132.665,242.850 133.200,243.365 133.200 M230.966 133.050 L 232.000 134.901 231.995 182.350 C 231.992 208.448,231.886 230.183,231.761 230.651 C 231.077 233.198,218.523 233.198,217.839 230.651 C 217.255 228.472,217.590 177.474,218.194 176.807 C 218.935 175.988,219.053 173.141,218.438 170.907 C 218.048 169.488,218.078 169.009,218.623 167.955 C 219.236 166.769,219.229 166.636,218.499 165.648 C 217.737 164.618,217.737 164.561,218.471 162.400 C 219.184 160.305,219.186 160.140,218.528 158.918 C 217.884 157.722,217.881 157.495,218.480 155.622 C 219.094 153.703,219.087 153.565,218.343 152.619 C 217.598 151.671,217.594 151.581,218.255 150.573 C 218.706 149.883,218.960 148.656,218.986 147.032 C 219.018 145.112,219.229 144.290,219.913 143.419 C 220.492 142.684,220.800 141.738,220.800 140.700 C 220.800 139.391,221.049 138.880,222.200 137.826 C 222.970 137.120,223.600 136.164,223.600 135.700 C 223.600 134.600,224.458 133.775,226.199 133.200 C 226.973 132.945,227.791 132.390,228.017 131.968 C 228.727 130.642,229.850 131.054,230.966 133.050 " stroke="none" fill="#f7f9f8" fill-rule="evenodd"></path><path id="path3" d="M228.226 111.384 C 227.141 111.675,226.060 112.177,225.825 112.499 C 225.589 112.820,224.968 113.220,224.444 113.386 C 222.305 114.065,216.400 119.607,216.400 120.936 C 216.400 121.196,216.063 121.618,215.650 121.876 C 215.238 122.133,214.780 122.825,214.633 123.412 C 214.485 124.000,214.004 124.968,213.563 125.565 C 213.118 126.166,212.603 127.765,212.407 129.152 C 212.212 130.528,211.816 131.939,211.527 132.288 C 211.100 132.802,210.962 142.399,210.800 182.961 C 210.690 210.483,210.450 233.231,210.268 233.514 C 209.703 234.388,206.006 237.725,204.771 238.476 C 204.127 238.868,203.600 239.496,203.600 239.873 C 203.600 240.249,203.123 241.246,202.539 242.088 C 201.544 243.524,201.510 243.716,201.996 245.188 C 202.837 247.736,201.792 250.955,200.069 251.125 C 198.728 251.258,198.414 251.981,199.358 252.765 C 200.135 253.410,200.618 253.218,202.530 251.500 L 204.200 250.000 204.284 246.100 C 204.394 240.977,204.708 239.963,206.440 239.137 C 208.115 238.338,211.193 235.098,211.218 234.109 C 211.227 233.719,211.536 232.680,211.905 231.800 C 212.514 230.343,212.593 225.761,212.787 180.400 L 213.000 130.600 214.300 127.733 C 215.015 126.156,215.600 124.707,215.600 124.512 C 215.600 123.154,223.908 114.400,225.197 114.400 C 225.573 114.400,226.493 113.958,227.241 113.417 C 227.988 112.877,229.185 112.166,229.900 111.838 C 232.288 110.741,231.458 110.516,228.226 111.384 M239.087 131.312 C 238.739 131.580,237.991 132.682,237.427 133.760 L 236.400 135.719 236.433 176.760 C 236.472 225.199,236.622 230.564,237.964 231.652 C 239.396 232.811,249.230 232.770,250.400 231.600 C 251.484 230.516,251.672 177.870,250.600 175.721 C 250.271 175.060,250.016 174.087,250.035 173.560 C 250.109 171.459,250.126 167.756,250.066 167.000 C 250.031 166.560,250.108 165.463,250.237 164.562 C 250.366 163.662,250.291 162.268,250.069 161.466 C 249.734 160.253,249.789 159.855,250.394 159.108 C 251.035 158.317,251.057 158.083,250.577 157.155 C 249.763 155.582,249.720 153.308,250.490 152.539 C 251.094 151.935,251.094 151.810,250.492 150.892 C 250.035 150.194,249.854 149.071,249.884 147.113 C 249.920 144.832,249.784 144.184,249.134 143.534 C 248.697 143.097,248.252 142.078,248.144 141.270 C 247.768 138.445,247.571 137.970,246.596 137.525 C 245.917 137.216,245.533 136.632,245.354 135.639 C 245.024 133.800,244.534 133.200,243.365 133.200 C 242.850 133.200,241.819 132.665,241.074 132.012 C 239.956 131.029,239.611 130.908,239.087 131.312 M228.017 131.968 C 227.791 132.390,226.973 132.945,226.199 133.200 C 224.458 133.775,223.600 134.600,223.600 135.700 C 223.600 136.164,222.970 137.120,222.200 137.826 C 221.049 138.880,220.800 139.391,220.800 140.700 C 220.800 141.738,220.492 142.684,219.913 143.419 C 219.229 144.290,219.018 145.112,218.986 147.032 C 218.960 148.656,218.706 149.883,218.255 150.573 C 217.594 151.581,217.598 151.671,218.343 152.619 C 219.087 153.565,219.094 153.703,218.480 155.622 C 217.881 157.495,217.884 157.722,218.528 158.918 C 219.186 160.140,219.184 160.305,218.471 162.400 C 217.737 164.561,217.737 164.618,218.499 165.648 C 219.229 166.636,219.236 166.769,218.623 167.955 C 218.078 169.009,218.048 169.488,218.438 170.907 C 219.053 173.141,218.935 175.988,218.194 176.807 C 217.590 177.474,217.255 228.472,217.839 230.651 C 218.523 233.198,231.077 233.198,231.761 230.651 C 231.886 230.183,231.992 208.448,231.995 182.350 L 232.000 134.901 230.966 133.050 C 229.850 131.054,228.727 130.642,228.017 131.968 M241.994 134.139 C 242.946 134.329,243.269 134.645,243.453 135.566 C 243.586 136.230,244.372 137.362,245.245 138.145 C 246.626 139.385,246.800 139.748,246.800 141.390 C 246.800 142.884,247.007 143.430,247.880 144.239 C 248.837 145.126,248.911 145.370,248.529 146.383 C 248.207 147.235,248.235 148.053,248.637 149.605 C 249.093 151.363,249.091 151.850,248.623 152.755 C 248.248 153.481,248.192 154.043,248.450 154.504 C 248.659 154.878,248.821 156.132,248.810 157.292 C 248.798 158.451,248.815 160.030,248.848 160.800 C 248.880 161.570,248.899 162.875,248.889 163.700 C 248.880 164.525,248.873 165.920,248.873 166.800 C 248.873 167.680,248.880 169.075,248.889 169.900 C 248.899 170.725,248.895 172.030,248.880 172.800 C 248.866 173.570,248.938 186.684,249.040 201.943 C 249.179 222.578,249.108 229.829,248.764 230.243 C 248.006 231.156,239.794 231.031,239.359 230.100 C 238.600 228.477,238.331 216.734,238.165 178.030 L 237.989 137.060 238.880 134.763 C 239.672 132.720,239.826 132.545,240.271 133.180 C 240.546 133.573,241.322 134.004,241.994 134.139 M229.905 181.437 C 229.977 214.167,229.878 229.481,229.591 230.017 C 228.921 231.269,220.642 231.200,219.967 229.938 C 219.623 229.296,219.568 221.186,219.751 198.238 C 219.887 181.277,219.999 167.040,220.002 166.600 C 220.004 166.160,220.025 164.810,220.049 163.600 C 220.072 162.390,220.076 160.770,220.056 160.000 C 220.036 159.230,220.048 157.880,220.082 157.000 C 220.117 156.120,220.118 154.680,220.085 153.800 C 220.052 152.920,220.054 151.660,220.089 151.000 C 220.123 150.340,220.150 148.721,220.147 147.401 C 220.143 145.366,220.283 144.892,221.071 144.272 C 221.648 143.819,222.000 143.117,222.000 142.421 C 222.000 140.118,222.495 138.744,223.456 138.379 C 223.975 138.181,224.400 137.773,224.400 137.472 C 224.400 137.171,224.760 136.598,225.200 136.200 C 225.640 135.802,226.000 135.237,226.000 134.946 C 226.000 134.654,226.443 134.304,226.984 134.168 C 227.525 134.033,228.183 133.662,228.447 133.344 C 229.752 131.771,229.799 133.334,229.905 181.437 M257.941 136.683 C 256.357 136.926,256.411 135.245,256.405 184.316 L 256.400 230.033 257.262 232.716 C 257.876 234.628,258.582 235.860,259.716 237.000 C 263.961 241.266,264.085 241.524,264.308 246.588 C 264.510 251.158,265.723 254.000,267.473 254.000 C 267.967 254.000,270.800 256.930,270.800 257.442 C 270.800 257.666,271.196 258.649,271.679 259.625 C 272.461 261.202,272.577 262.189,272.724 268.488 C 272.858 274.273,273.003 275.670,273.511 276.088 C 274.061 276.541,274.103 276.416,273.871 275.000 C 273.727 274.120,273.607 270.130,273.604 266.134 C 273.600 259.403,273.540 258.799,272.786 257.934 C 272.338 257.420,271.663 256.370,271.286 255.600 C 270.909 254.830,270.060 253.927,269.400 253.594 C 268.740 253.260,267.525 252.287,266.700 251.432 L 265.200 249.877 265.200 245.512 C 265.200 240.428,265.167 240.349,261.574 236.662 L 258.856 233.873 258.604 231.036 C 258.273 227.308,258.541 138.468,258.887 137.300 C 259.034 136.805,259.119 136.427,259.077 136.460 C 259.035 136.493,258.523 136.593,257.941 136.683 M7.173 243.056 C 8.593 244.862,8.279 249.902,6.701 250.616 C 6.234 250.827,5.779 251.229,5.690 251.508 C 5.327 252.646,7.572 251.056,7.980 249.885 C 8.912 247.212,8.294 242.752,6.918 242.224 C 6.548 242.082,6.639 242.377,7.173 243.056 M25.527 250.100 C 24.176 251.994,24.155 258.315,25.493 260.405 C 26.472 261.933,26.719 261.607,25.800 260.000 C 24.910 258.443,25.026 252.622,25.989 250.500 C 26.913 248.464,26.778 248.347,25.527 250.100 M204.608 265.958 C 201.726 267.918,201.665 268.054,201.624 272.600 C 201.576 277.890,201.286 279.259,200.245 279.116 C 199.411 279.001,199.399 279.108,199.292 287.500 L 199.184 296.000 200.145 296.000 C 201.282 296.000,201.587 296.827,201.595 299.933 C 201.598 301.462,201.742 302.018,202.100 301.897 C 202.415 301.789,202.572 301.074,202.525 299.963 C 201.743 281.627,202.103 270.993,203.558 269.444 C 204.021 268.952,204.400 268.366,204.400 268.143 C 204.400 266.256,210.310 265.599,214.271 267.044 C 216.963 268.027,216.854 267.438,217.080 282.200 C 217.278 295.126,217.348 295.600,219.063 295.600 C 219.893 295.600,219.970 295.492,219.614 294.826 C 219.357 294.347,219.200 289.865,219.200 283.034 C 219.200 272.083,219.194 272.001,218.161 269.508 C 216.010 264.314,209.524 262.614,204.608 265.958 M231.762 265.558 C 230.861 266.229,229.601 267.532,228.962 268.454 L 227.800 270.131 227.660 278.938 C 227.514 288.087,227.805 293.600,228.434 293.600 C 228.646 293.600,228.800 289.149,228.800 283.021 C 228.800 272.689,228.822 272.401,229.739 270.677 C 230.255 269.705,230.778 268.526,230.901 268.055 C 231.031 267.561,231.445 267.200,231.883 267.200 C 232.299 267.200,232.814 267.026,233.027 266.813 C 234.214 265.626,236.959 266.424,239.000 268.550 L 240.200 269.800 240.465 278.400 C 240.814 289.749,240.749 289.450,242.771 289.006 C 244.354 288.659,244.539 287.200,243.000 287.200 L 242.000 287.200 242.000 280.020 C 242.000 273.326,241.642 270.261,240.597 268.000 C 239.128 264.821,234.477 263.536,231.762 265.558 M255.388 264.740 C 253.682 265.287,251.592 267.340,250.593 269.452 C 248.725 273.399,248.783 284.455,250.672 284.724 C 251.539 284.848,251.543 284.818,251.319 279.724 C 250.864 269.355,252.773 266.000,259.127 266.000 C 263.952 266.000,265.982 268.214,266.331 273.859 L 266.600 278.200 267.800 278.329 C 268.850 278.441,268.918 278.391,268.345 277.929 C 267.847 277.526,267.642 276.444,267.486 273.400 C 267.231 268.432,266.821 267.525,264.042 265.787 C 261.792 264.380,257.960 263.916,255.388 264.740 " stroke="none" fill="#74ae87" fill-rule="evenodd"></path><path id="path4" d="M5.200 119.454 C 5.200 243.360,5.178 241.685,6.800 242.200 C 9.237 242.973,8.925 250.237,6.394 251.681 L 5.200 252.363 5.200 355.181 L 5.200 458.000 16.000 458.000 L 26.800 458.000 26.800 360.460 L 26.800 262.919 25.712 260.960 C 24.078 258.015,24.071 252.034,25.700 249.897 L 26.800 248.453 26.800 133.427 L 26.800 18.400 200.000 18.400 L 373.200 18.400 373.200 103.200 L 373.200 188.000 382.800 188.000 L 392.400 188.000 392.400 94.000 L 392.400 0.000 198.800 0.000 L 5.200 0.000 5.200 119.454 M199.067 83.067 C 198.920 83.213,198.800 121.115,198.800 167.292 L 198.800 251.251 200.069 251.125 C 201.792 250.955,202.837 247.736,201.996 245.188 C 201.510 243.716,201.544 243.524,202.539 242.088 C 203.123 241.246,203.600 240.249,203.600 239.873 C 203.600 239.496,204.127 238.868,204.771 238.476 C 206.006 237.725,209.703 234.388,210.268 233.514 C 210.450 233.231,210.690 210.483,210.800 182.961 C 210.962 142.399,211.100 132.802,211.527 132.288 C 211.816 131.939,212.212 130.528,212.407 129.152 C 212.603 127.765,213.118 126.166,213.563 125.565 C 214.004 124.968,214.485 124.000,214.633 123.412 C 214.780 122.825,215.238 122.133,215.650 121.876 C 216.063 121.618,216.400 121.196,216.400 120.936 C 216.400 119.630,222.297 114.067,224.385 113.405 C 224.877 113.249,225.605 112.795,226.004 112.396 C 226.402 111.998,227.735 111.463,228.964 111.207 C 231.508 110.679,232.270 109.084,230.223 108.570 C 229.628 108.421,229.198 107.987,229.123 107.462 C 229.037 106.858,228.671 106.562,227.900 106.473 C 227.036 106.374,226.800 106.138,226.800 105.373 C 226.800 104.609,226.591 104.400,225.827 104.400 C 225.062 104.400,224.826 104.164,224.727 103.300 C 224.627 102.436,224.364 102.173,223.500 102.073 C 222.636 101.974,222.400 101.738,222.400 100.973 C 222.400 100.202,222.193 100.000,221.400 100.000 C 220.600 100.000,220.400 99.800,220.400 99.000 C 220.400 98.207,220.198 98.000,219.427 98.000 C 218.662 98.000,218.426 97.764,218.327 96.900 C 218.227 96.036,217.964 95.773,217.100 95.673 C 216.236 95.574,216.000 95.338,216.000 94.573 C 216.000 93.802,215.793 93.600,215.000 93.600 C 214.200 93.600,214.000 93.400,214.000 92.600 C 214.000 91.814,213.797 91.600,213.050 91.600 C 212.314 91.600,212.046 91.329,211.860 90.400 C 211.669 89.447,211.412 89.200,210.610 89.200 C 209.799 89.200,209.600 89.003,209.600 88.200 C 209.600 87.400,209.400 87.200,208.600 87.200 C 207.797 87.200,207.600 87.001,207.600 86.190 C 207.600 85.388,207.353 85.131,206.400 84.940 C 205.471 84.754,205.200 84.486,205.200 83.750 C 205.200 82.806,199.916 82.217,199.067 83.067 M238.880 134.763 L 237.989 137.060 238.165 178.030 C 238.331 216.734,238.600 228.477,239.359 230.100 C 239.794 231.031,248.006 231.156,248.764 230.243 C 249.108 229.829,249.179 222.578,249.040 201.943 C 248.938 186.684,248.866 173.570,248.880 172.800 C 248.895 172.030,248.899 170.725,248.889 169.900 C 248.880 169.075,248.873 167.680,248.873 166.800 C 248.873 165.920,248.880 164.525,248.889 163.700 C 248.899 162.875,248.880 161.570,248.848 160.800 C 248.815 160.030,248.798 158.451,248.810 157.292 C 248.821 156.132,248.659 154.878,248.450 154.504 C 248.192 154.043,248.248 153.481,248.623 152.755 C 249.091 151.850,249.093 151.363,248.637 149.605 C 248.235 148.053,248.207 147.235,248.529 146.383 C 248.911 145.370,248.837 145.126,247.880 144.239 C 247.007 143.430,246.800 142.884,246.800 141.390 C 246.800 139.748,246.626 139.385,245.245 138.145 C 244.372 137.362,243.586 136.230,243.453 135.566 C 243.269 134.645,242.946 134.329,241.994 134.139 C 241.322 134.004,240.546 133.573,240.271 133.180 C 239.826 132.545,239.672 132.720,238.880 134.763 M228.447 133.344 C 228.183 133.662,227.525 134.033,226.984 134.168 C 226.443 134.304,226.000 134.654,226.000 134.946 C 226.000 135.237,225.640 135.802,225.200 136.200 C 224.760 136.598,224.400 137.171,224.400 137.472 C 224.400 137.773,223.975 138.181,223.456 138.379 C 222.495 138.744,222.000 140.118,222.000 142.421 C 222.000 143.117,221.648 143.819,221.071 144.272 C 220.283 144.892,220.143 145.366,220.147 147.401 C 220.150 148.721,220.123 150.340,220.089 151.000 C 220.054 151.660,220.052 152.920,220.085 153.800 C 220.118 154.680,220.117 156.120,220.082 157.000 C 220.048 157.880,220.036 159.230,220.056 160.000 C 220.076 160.770,220.072 162.390,220.049 163.600 C 220.025 164.810,220.004 166.160,220.002 166.600 C 219.999 167.040,219.887 181.277,219.751 198.238 C 219.568 221.186,219.623 229.296,219.967 229.938 C 220.642 231.200,228.921 231.269,229.591 230.017 C 230.191 228.895,229.968 133.807,229.363 133.203 C 229.047 132.887,228.793 132.926,228.447 133.344 M259.169 136.500 C 259.153 136.555,259.026 136.960,258.889 137.400 C 258.554 138.472,258.284 227.425,258.604 231.036 L 258.856 233.873 261.574 236.662 C 265.167 240.349,265.200 240.428,265.200 245.512 L 265.200 249.877 266.700 251.432 C 267.525 252.287,268.740 253.260,269.400 253.594 C 270.060 253.927,270.909 254.830,271.286 255.600 C 271.663 256.370,272.338 257.420,272.786 257.934 C 273.540 258.799,273.600 259.403,273.604 266.134 C 273.607 270.130,273.720 274.075,273.857 274.900 L 274.105 276.400 277.262 276.400 L 280.420 276.400 280.657 275.216 C 280.892 274.041,280.918 274.031,283.947 273.916 C 286.750 273.810,287.010 273.728,287.126 272.916 C 287.241 272.104,287.501 272.023,290.326 271.916 C 293.168 271.809,293.410 271.732,293.528 270.900 C 293.641 270.105,293.898 269.995,295.728 269.960 C 298.671 269.903,299.778 269.518,299.926 268.500 C 300.040 267.709,300.320 267.623,303.126 267.516 C 305.968 267.409,306.210 267.332,306.328 266.500 C 306.442 265.693,306.680 265.600,308.628 265.600 C 310.668 265.600,310.800 265.540,310.800 264.617 C 310.800 263.667,310.906 263.630,313.900 263.517 C 316.951 263.402,317.002 263.383,317.127 262.300 C 317.253 261.203,317.262 261.200,320.427 261.200 C 323.545 261.200,323.600 261.183,323.600 260.200 C 323.600 259.237,323.696 259.200,326.167 259.200 C 329.369 259.200,330.000 258.963,330.000 257.757 C 330.000 256.827,330.091 256.800,333.200 256.800 C 336.332 256.800,336.400 256.779,336.400 255.817 C 336.400 254.867,336.506 254.830,339.500 254.717 C 342.347 254.610,342.610 254.528,342.725 253.720 C 342.833 252.961,343.137 252.824,344.925 252.720 C 346.857 252.608,347.009 252.524,347.127 251.500 C 347.253 250.403,347.262 250.400,350.427 250.400 C 353.545 250.400,353.600 250.383,353.600 249.400 C 353.600 248.417,353.654 248.400,356.792 248.400 C 359.864 248.400,359.994 248.362,360.236 247.400 C 360.470 246.465,360.652 246.400,363.015 246.400 C 366.381 246.400,366.812 245.948,366.760 242.471 C 366.708 238.948,366.369 237.829,365.308 237.675 C 364.780 237.599,364.401 237.214,364.325 236.675 C 364.246 236.121,363.870 235.753,363.300 235.672 C 362.712 235.589,362.400 235.269,362.400 234.751 C 362.400 234.233,361.992 233.816,361.224 233.548 C 360.488 233.292,360.001 232.813,359.924 232.269 C 359.820 231.537,359.500 231.381,357.900 231.278 C 356.185 231.168,356.000 231.061,356.000 230.178 C 356.000 229.358,355.806 229.200,354.800 229.200 C 353.733 229.200,353.600 229.067,353.600 228.000 C 353.600 226.987,353.444 226.800,352.600 226.800 C 351.800 226.800,351.600 226.600,351.600 225.800 C 351.600 225.007,351.398 224.800,350.627 224.800 C 349.862 224.800,349.626 224.564,349.527 223.700 C 349.427 222.836,349.164 222.573,348.300 222.473 C 347.436 222.374,347.200 222.138,347.200 221.373 C 347.200 220.602,346.993 220.400,346.200 220.400 C 345.400 220.400,345.200 220.200,345.200 219.400 C 345.200 218.607,344.998 218.400,344.227 218.400 C 343.462 218.400,343.226 218.164,343.127 217.300 C 343.027 216.436,342.764 216.173,341.900 216.073 C 341.036 215.974,340.800 215.738,340.800 214.973 C 340.800 214.202,340.593 214.000,339.800 214.000 C 339.000 214.000,338.800 213.800,338.800 213.000 C 338.800 212.156,338.613 212.000,337.600 212.000 C 336.533 212.000,336.400 211.867,336.400 210.800 C 336.400 209.787,336.244 209.600,335.400 209.600 C 334.600 209.600,334.400 209.400,334.400 208.600 C 334.400 207.800,334.200 207.600,333.400 207.600 C 332.597 207.600,332.400 207.401,332.400 206.590 C 332.400 205.788,332.153 205.531,331.200 205.340 C 330.271 205.154,330.000 204.886,330.000 204.150 C 330.000 203.403,329.786 203.200,329.000 203.200 C 328.200 203.200,328.000 203.000,328.000 202.200 C 328.000 201.400,327.800 201.200,327.000 201.200 C 326.304 201.200,326.000 200.981,326.000 200.480 C 326.000 199.558,325.242 198.800,324.320 198.800 C 323.819 198.800,323.600 198.496,323.600 197.800 C 323.600 197.008,323.398 196.800,322.628 196.800 C 321.924 196.800,321.620 196.551,321.528 195.900 C 321.436 195.256,321.088 194.964,320.300 194.873 C 319.379 194.767,319.200 194.556,319.200 193.573 C 319.200 192.588,319.039 192.400,318.200 192.400 C 317.400 192.400,317.200 192.200,317.200 191.400 C 317.200 190.556,317.013 190.400,316.000 190.400 C 314.987 190.400,314.800 190.244,314.800 189.400 C 314.800 188.600,314.600 188.400,313.800 188.400 C 313.002 188.400,312.800 188.199,312.800 187.408 C 312.800 186.692,312.531 186.348,311.835 186.173 C 311.260 186.029,310.771 185.540,310.627 184.965 C 310.452 184.269,310.108 184.000,309.392 184.000 C 308.613 184.000,308.400 183.795,308.400 183.043 C 308.400 182.364,308.118 182.016,307.428 181.843 C 306.821 181.690,306.407 181.260,306.328 180.699 C 306.246 180.122,305.878 179.754,305.301 179.672 C 304.740 179.593,304.310 179.179,304.157 178.572 C 303.960 177.788,303.658 177.600,302.589 177.600 C 300.656 177.600,300.000 177.234,300.000 176.157 C 300.000 175.403,299.788 175.200,299.000 175.200 C 298.200 175.200,298.000 175.000,298.000 174.200 C 298.000 173.356,297.813 173.200,296.800 173.200 C 295.733 173.200,295.600 173.067,295.600 172.000 C 295.600 170.987,295.444 170.800,294.600 170.800 C 293.800 170.800,293.600 170.600,293.600 169.800 C 293.600 168.956,293.413 168.800,292.400 168.800 C 291.387 168.800,291.200 168.644,291.200 167.800 C 291.200 167.000,291.000 166.800,290.200 166.800 C 289.356 166.800,289.200 166.613,289.200 165.600 C 289.200 164.587,289.044 164.400,288.200 164.400 C 287.400 164.400,287.200 164.200,287.200 163.400 C 287.200 162.556,287.013 162.400,286.000 162.400 C 284.987 162.400,284.800 162.244,284.800 161.400 C 284.800 160.600,284.600 160.400,283.800 160.400 C 282.956 160.400,282.800 160.213,282.800 159.200 C 282.800 158.196,282.641 158.000,281.828 158.000 C 281.124 158.000,280.820 157.751,280.728 157.100 C 280.637 156.461,280.287 156.164,279.524 156.076 C 278.693 155.980,278.420 155.707,278.324 154.876 C 278.236 154.113,277.939 153.763,277.300 153.672 C 276.649 153.580,276.400 153.276,276.400 152.572 C 276.400 151.759,276.204 151.600,275.200 151.600 C 274.187 151.600,274.000 151.444,274.000 150.600 C 274.000 149.807,273.798 149.600,273.027 149.600 C 272.262 149.600,272.026 149.364,271.927 148.500 C 271.837 147.723,271.543 147.363,270.925 147.275 C 270.379 147.198,270.002 146.821,269.925 146.275 C 269.837 145.657,269.477 145.363,268.700 145.273 C 267.836 145.174,267.600 144.938,267.600 144.173 C 267.600 143.409,267.391 143.200,266.627 143.200 C 265.862 143.200,265.626 142.964,265.527 142.100 C 265.438 141.329,265.142 140.963,264.538 140.877 C 264.013 140.802,263.579 140.372,263.430 139.777 C 263.252 139.069,262.911 138.800,262.192 138.800 C 261.412 138.800,261.200 138.595,261.200 137.843 C 261.200 137.316,260.915 136.776,260.567 136.643 C 259.918 136.393,259.224 136.323,259.169 136.500 M206.100 266.887 C 205.165 267.366,204.400 267.936,204.400 268.153 C 204.400 268.371,204.021 268.952,203.558 269.444 C 202.424 270.651,201.813 280.367,202.201 291.000 C 202.354 295.180,202.506 299.372,202.540 300.316 L 202.600 302.033 205.000 301.916 C 207.129 301.813,207.414 301.700,207.526 300.916 C 207.641 300.104,207.901 300.023,210.726 299.916 C 213.568 299.809,213.810 299.732,213.928 298.900 C 214.045 298.075,214.266 298.000,216.595 298.000 C 219.769 298.000,220.400 297.761,220.400 296.557 C 220.400 295.769,220.196 295.600,219.249 295.600 C 217.323 295.600,217.281 295.343,217.080 282.200 C 216.976 275.380,216.767 269.350,216.616 268.800 C 216.005 266.572,209.150 265.325,206.100 266.887 M234.600 266.291 C 234.160 266.374,233.440 266.596,233.000 266.784 C 232.560 266.973,231.885 267.228,231.500 267.351 C 231.115 267.474,230.800 267.824,230.800 268.128 C 230.800 268.432,230.350 269.527,229.800 270.562 C 228.806 272.431,228.800 272.504,228.800 283.048 L 228.800 293.653 229.900 293.527 C 230.764 293.427,231.027 293.164,231.127 292.300 C 231.253 291.203,231.262 291.200,234.427 291.200 C 237.545 291.200,237.600 291.183,237.600 290.200 C 237.600 289.284,237.749 289.200,239.365 289.200 C 241.074 289.200,241.123 289.165,240.921 288.100 C 240.807 287.495,240.598 283.130,240.457 278.400 L 240.200 269.800 239.000 268.547 C 237.559 267.042,235.695 266.086,234.600 266.291 M255.000 266.910 C 252.573 267.937,252.600 267.899,251.824 271.333 C 251.178 274.198,251.021 279.056,251.459 282.700 L 251.711 284.800 254.256 284.800 C 256.703 284.800,256.800 284.762,256.800 283.800 C 256.800 282.837,256.896 282.800,259.367 282.800 C 262.414 282.800,263.200 282.556,263.200 281.610 C 263.200 281.017,263.675 280.875,266.207 280.712 C 269.528 280.499,269.393 280.552,269.770 279.324 C 270.014 278.528,269.882 278.437,268.319 278.324 L 266.600 278.200 266.331 273.859 C 266.100 270.126,265.937 269.384,265.165 268.563 C 262.778 266.022,258.677 265.355,255.000 266.910 M78.667 401.467 C 78.520 401.613,78.400 402.494,78.400 403.423 C 78.400 404.892,78.269 405.146,77.400 405.364 C 76.504 405.589,76.400 405.819,76.400 407.564 C 76.400 409.310,76.296 409.540,75.400 409.764 C 74.558 409.976,74.399 410.251,74.396 411.508 C 74.387 414.495,73.959 415.949,73.051 416.079 C 72.325 416.182,72.182 416.509,72.079 418.300 C 71.968 420.228,71.878 420.400,70.979 420.400 C 70.059 420.400,70.000 420.533,70.000 422.600 C 70.000 424.648,69.934 424.800,69.052 424.800 C 68.012 424.800,67.613 426.096,67.604 429.500 C 67.600 431.045,67.509 431.200,66.600 431.200 C 65.655 431.200,65.600 431.320,65.600 433.400 C 65.600 435.480,65.545 435.600,64.600 435.600 C 63.673 435.600,63.600 435.739,63.600 437.512 C 63.600 439.270,63.503 439.461,62.400 439.878 C 61.313 440.288,61.200 440.499,61.200 442.122 C 61.200 443.699,61.080 443.943,60.200 444.164 C 59.245 444.404,59.200 444.549,59.200 447.408 C 59.200 450.333,59.178 450.400,58.200 450.400 C 57.291 450.400,57.199 450.555,57.194 452.100 C 57.187 454.083,56.899 454.652,55.800 454.857 C 55.199 454.970,54.969 455.378,54.876 456.503 L 54.752 458.000 63.376 458.000 C 70.775 458.000,72.000 457.915,72.000 457.400 C 72.000 457.027,72.378 456.800,73.000 456.800 C 73.933 456.800,74.000 456.667,74.000 454.800 L 74.000 452.800 87.000 452.800 L 100.000 452.800 100.000 454.800 C 100.000 456.667,100.067 456.800,101.000 456.800 C 101.622 456.800,102.000 457.027,102.000 457.400 C 102.000 457.915,103.222 458.000,110.600 458.000 L 119.200 458.000 119.200 456.400 C 119.200 454.967,119.097 454.800,118.217 454.800 C 117.267 454.800,117.230 454.694,117.117 451.700 C 117.010 448.853,116.928 448.590,116.120 448.475 C 115.361 448.367,115.224 448.063,115.120 446.275 C 115.009 444.353,114.920 444.191,113.920 444.075 C 112.920 443.960,112.831 443.797,112.720 441.875 C 112.616 440.071,112.482 439.783,111.700 439.672 C 110.874 439.555,110.800 439.334,110.800 437.001 C 110.800 434.568,110.222 433.200,109.193 433.200 C 109.001 433.200,108.789 432.352,108.722 431.316 C 108.616 429.681,108.468 429.402,107.600 429.200 C 106.713 428.994,106.586 428.733,106.479 426.884 C 106.368 424.973,106.277 424.800,105.379 424.800 C 104.454 424.800,104.400 424.672,104.395 422.500 C 104.387 419.231,104.095 418.400,102.953 418.400 C 102.064 418.400,102.000 418.251,102.000 416.200 C 102.000 414.133,101.941 414.000,101.021 414.000 C 100.122 414.000,100.032 413.828,99.921 411.900 C 99.816 410.071,99.684 409.784,98.900 409.672 C 98.105 409.559,97.995 409.302,97.960 407.472 C 97.903 404.512,97.520 403.422,96.484 403.272 C 95.850 403.180,95.600 402.870,95.600 402.172 L 95.600 401.200 87.267 401.200 C 82.683 401.200,78.813 401.320,78.667 401.467 M119.450 402.450 C 119.128 404.060,119.121 444.529,119.443 445.367 C 119.576 445.715,120.116 446.000,120.643 446.000 C 121.572 446.000,121.600 446.092,121.600 449.192 C 121.600 452.264,121.638 452.394,122.600 452.636 C 123.318 452.816,123.600 453.157,123.600 453.843 C 123.600 454.640,123.801 454.800,124.800 454.800 C 125.813 454.800,126.000 454.956,126.000 455.800 C 126.000 456.600,126.200 456.800,127.000 456.800 C 127.622 456.800,128.000 457.027,128.000 457.400 C 128.000 457.925,130.289 458.000,146.200 458.000 C 162.111 458.000,164.400 457.925,164.400 457.400 C 164.400 457.000,164.800 456.800,165.600 456.800 C 166.613 456.800,166.800 456.644,166.800 455.800 C 166.800 455.000,167.000 454.800,167.800 454.800 C 168.644 454.800,168.800 454.613,168.800 453.600 C 168.800 452.587,168.956 452.400,169.800 452.400 C 170.783 452.400,170.800 452.347,170.800 449.200 C 170.800 446.069,170.821 446.000,171.782 446.000 C 173.225 446.000,173.242 445.711,173.114 422.400 L 173.000 401.400 165.500 401.291 L 158.000 401.182 158.000 419.391 L 158.000 437.600 157.000 437.600 C 156.056 437.600,156.000 437.722,156.000 439.773 C 156.000 441.847,155.950 441.953,154.900 442.073 C 154.112 442.164,153.764 442.456,153.672 443.100 C 153.545 443.996,153.513 444.000,146.172 444.000 L 138.800 444.000 138.800 443.000 C 138.800 442.156,138.613 442.000,137.600 442.000 C 136.412 442.000,136.400 441.978,136.400 439.800 C 136.400 437.720,136.345 437.600,135.400 437.600 L 134.400 437.600 134.400 419.400 L 134.400 401.200 127.050 401.200 L 119.700 401.200 119.450 402.450 M179.600 429.591 L 179.600 458.000 202.200 458.000 L 224.800 458.000 224.800 454.200 C 224.800 450.413,224.804 450.400,225.800 450.400 C 226.783 450.400,226.800 450.347,226.800 447.200 L 226.800 444.000 210.804 444.000 L 194.807 444.000 194.704 422.700 L 194.600 401.400 187.100 401.291 L 179.600 401.182 179.600 429.591 M237.600 402.178 C 237.600 403.061,237.415 403.168,235.700 403.278 L 233.800 403.400 233.427 405.500 C 233.103 407.322,232.931 407.600,232.127 407.600 C 231.284 407.600,231.200 407.777,231.200 409.557 C 231.200 411.310,231.096 411.539,230.200 411.764 L 229.200 412.015 229.200 420.408 L 229.200 428.800 230.200 428.800 C 231.145 428.800,231.200 428.920,231.200 431.000 C 231.200 433.064,231.260 433.200,232.173 433.200 C 232.938 433.200,233.174 433.436,233.273 434.300 C 233.373 435.164,233.636 435.427,234.500 435.527 C 235.364 435.626,235.600 435.862,235.600 436.627 C 235.600 437.540,235.736 437.600,237.800 437.600 C 239.880 437.600,240.000 437.655,240.000 438.600 L 240.000 439.600 253.800 439.600 L 267.600 439.600 267.600 441.796 L 267.600 443.991 250.518 444.096 L 233.436 444.200 233.202 445.200 C 233.053 445.832,232.642 446.247,232.084 446.328 C 231.237 446.450,231.200 446.629,231.200 450.628 L 231.200 454.800 230.200 454.800 C 229.300 454.800,229.200 454.960,229.200 456.400 L 229.200 458.000 252.800 458.000 C 273.511 458.000,276.400 457.927,276.400 457.400 C 276.400 457.027,276.778 456.800,277.400 456.800 C 278.192 456.800,278.400 456.598,278.400 455.828 C 278.400 455.130,278.650 454.820,279.284 454.728 C 280.320 454.578,280.703 453.488,280.760 450.528 C 280.795 448.698,280.905 448.441,281.700 448.328 C 283.372 448.090,283.266 431.200,281.592 431.200 C 280.966 431.200,280.799 430.927,280.795 429.900 C 280.785 427.643,280.393 426.800,279.353 426.800 C 278.603 426.800,278.400 426.587,278.400 425.800 C 278.400 425.000,278.200 424.800,277.400 424.800 C 276.612 424.800,276.400 424.597,276.400 423.843 C 276.400 422.639,275.769 422.400,272.595 422.400 C 270.266 422.400,270.045 422.325,269.928 421.500 L 269.800 420.600 256.900 420.494 L 244.000 420.389 244.000 419.399 L 244.000 418.409 260.100 418.305 L 276.200 418.200 276.324 417.125 C 276.411 416.372,276.711 416.012,277.324 415.925 C 278.147 415.808,278.212 415.544,278.400 411.600 C 278.586 407.690,278.659 407.392,279.454 407.278 C 280.338 407.152,280.800 405.883,280.800 403.583 C 280.800 401.024,282.414 401.200,258.957 401.200 L 237.600 401.200 237.600 402.178 M287.200 429.592 L 287.200 458.000 295.800 458.000 L 304.400 458.000 304.400 447.800 L 304.400 437.600 316.200 437.600 L 328.000 437.600 328.000 447.800 L 328.000 458.000 335.603 458.000 L 343.205 458.000 343.103 429.700 L 343.000 401.400 335.500 401.291 L 328.000 401.182 328.000 411.791 L 328.000 422.400 316.207 422.400 L 304.413 422.400 304.307 411.900 L 304.200 401.400 295.700 401.292 L 287.200 401.184 287.200 429.592 M89.281 428.943 C 89.392 430.855,89.477 431.009,90.500 431.127 C 91.589 431.252,91.600 431.283,91.600 434.193 C 91.600 436.171,91.764 437.199,92.100 437.335 C 92.375 437.446,90.350 437.551,87.600 437.569 L 82.600 437.601 82.736 435.424 C 82.853 433.548,82.991 433.229,83.736 433.123 C 84.524 433.011,84.610 432.729,84.716 429.925 C 84.830 426.913,84.855 426.847,85.916 426.725 C 88.680 426.406,89.151 426.717,89.281 428.943 " stroke="none" fill="#1c7c3b" fill-rule="evenodd"></path></g></svg>